<svg width="15" height="16" viewBox="0 0 15 16" fill="none" xmlns="http://www.w3.org/2000/svg">
    <path fill-rule="evenodd" clip-rule="evenodd"
          d="M12.8347 1.90322H12.0726V0.379028H10.5484V1.90322H4.4516V0.379028H2.9274V1.90322H2.16531C1.31938 1.90322 0.641113 2.58911 0.641113 3.42742V14.0968C0.641113 14.9351 1.31938 15.621 2.16531 15.621H12.8347C13.673 15.621 14.3589 14.9351 14.3589 14.0968V3.42742C14.3589 2.58911 13.673 1.90322 12.8347 1.90322ZM12.8347 14.0968H2.16531V5.71371H12.8347V14.0968ZM3.30845 8.76209C3.30845 7.7104 4.162 6.85685 5.21369 6.85685C6.26539 6.85685 7.11894 7.7104 7.11894 8.76209C7.11894 9.81379 6.26539 10.6673 5.21369 10.6673C4.162 10.6673 3.30845 9.81379 3.30845 8.76209Z"
          fill="currentColor"/>
</svg>
