<svg width="39" height="35" viewBox="0 0 39 35" fill="none" xmlns="http://www.w3.org/2000/svg">
    <path d="M19.5 12.4506V19.3004M19.5 26.1502H19.5167M16.6358 3.64865L2.44892 27.8627C2.15642 28.3805 2.00165 28.9677 2.00001 29.5657C1.99838 30.1637 2.14993 30.7518 2.43959 31.2713C2.72925 31.7909 3.14692 32.2238 3.65105 32.5271C4.15518 32.8304 4.7282 32.9934 5.3131 33H33.6869C34.2718 32.9934 34.8448 32.8304 35.3489 32.5271C35.8531 32.2238 36.2708 31.7909 36.5604 31.2713C36.8501 30.7518 37.0016 30.1637 37 29.5657C36.9984 28.9677 36.8436 28.3805 36.5511 27.8627L22.3642 3.64865C22.0656 3.14537 21.6452 2.72927 21.1435 2.44049C20.6418 2.15171 20.0757 2 19.5 2C18.9243 2 18.3582 2.15171 17.8565 2.44049C17.3548 2.72927 16.9344 3.14537 16.6358 3.64865Z"
          stroke="white" stroke-width="4" stroke-linecap="round" stroke-linejoin="round"/>
</svg>
